<svg width="42" height="39" fill="none" xmlns="http://www.w3.org/2000/svg"><circle cx="18" cy="18" r="18" fill="#FFA501"/><path d="M39.5 17.75H28.25v.833H39.5v-.833zm-4.167 1.667H28.25v.833h7.083v-.833zm0 1.666H28.25v.834h7.083v-.834zm4.167-5h-7.917v.834H39.5v-.834zm-8.75 0h-.833v.834h.833v-.834zm-.833 14.584h-.834v.833h.834v-.833zm-5.956-13.872l-.589-.59-.833.834a.417.417 0 000 .589l.833.833.59-.589-.54-.539.54-.538zm3.334.244l-.834-.834-.589.59.539.538-.539.54.59.588.833-.833a.417.417 0 000-.59zm-2.357-1.088l-.834 2.5.79.264.835-2.5-.79-.264zm13.729 10.966v-3.334h-.834v3.334H37V22.75h-.833v4.167h-.834v-2.084H34.5v2.084h-.833v-2.5h-.834v2.5H32V25.25h-.833v1.667h-.834v.833H39.5v-.833h-.833z" fill="#000"/><path d="M39.083 14H19.917a2.502 2.502 0 00-2.5 2.5v14.167a2.502 2.502 0 002.5 2.5h5.159L23.409 36.5h-2.242a1.25 1.25 0 100 2.5h16.666a1.25 1.25 0 000-2.5h-2.242l-1.667-3.333h5.16a2.503 2.503 0 002.5-2.5V16.5a2.503 2.503 0 00-2.5-2.5zM18.25 19.863l.947 1.127a.42.42 0 00.32.149h1.275c.123 0 .24-.055.319-.149l.947-1.127.935.303.104 1.468c.008.123.07.236.17.308l1.032.75c.1.072.227.097.346.067l1.43-.355.579.795-.78 1.25a.416.416 0 00-.04.35l.394 1.213a.417.417 0 00.24.257l1.365.554v.983l-1.366.554a.414.414 0 00-.24.258l-.125.382h-2.4a3.923 3.923 0 00-5.452-5.116v-4.021zm0 5.012A3.095 3.095 0 0122.75 29h-4.5v-4.125zm19.583 12.458a.417.417 0 010 .834H21.167a.417.417 0 010-.834h16.666zM34.66 36.5H24.341l1.666-3.333h6.985L34.66 36.5zm6.091-5.833c0 .92-.746 1.666-1.667 1.666H19.917c-.92 0-1.667-.746-1.667-1.666v-.834h22.5v.834zm0-1.667H27.106l1.3-.527a.417.417 0 00.26-.386v-1.545a.417.417 0 00-.26-.387l-1.448-.585-.274-.844.826-1.325a.417.417 0 00-.017-.465l-.908-1.25a.417.417 0 00-.438-.16l-1.514.375-.716-.52-.11-1.554a.417.417 0 00-.287-.367l-1.469-.477a.42.42 0 00-.448.128L20.6 20.305h-.888l-1.004-1.194a.42.42 0 00-.448-.128l-.01.003V16.5c0-.92.746-1.667 1.667-1.667h19.166c.92 0 1.667.746 1.667 1.667V29z" fill="#000"/></svg>