<svg width="40" height="40" fill="none" xmlns="http://www.w3.org/2000/svg"><circle cx="18" cy="18" r="18" fill="#FFA501"/><path d="M17.93 30.954l-1.865-.411C15.52 31.645 15 32.883 15 34.31c0 1.4.498 2.624 1.065 3.768l6.308-1.391v2.744l2.197-1.098 2.198 1.098v-2.743l6.258 1.391c.543-1.094 1.066-2.336 1.066-3.769 0-.246-.018-.492-.05-.732H40V16H17.93v14.954zm-1.03 5.44c-.19-.504-.435-1.304-.435-2.084 0-.779.245-1.58.436-2.083l5.472 1.207v1.753l-5.472 1.207zm8.403.667l-.733-.366-.732.366v-3.483h1.465v3.483zm6.888-.668l-5.423-1.205v-1.755l5.423-1.205c.19.504.436 1.304.436 2.082 0 .78-.245 1.58-.436 2.083zm6.344-18.928v14.648h-4.831c-.24-.734-.434-1.081-.678-1.571l-7.071 1.571h-2.77l-3.79-.836V17.465h19.14z" fill="#000"/><path d="M23.838 18.93h10.254v1.465H23.838V18.93zm-2.978 5.86h16.21v1.464H20.86v-1.465zm2.978 2.929h10.254v1.465H23.838v-1.465zm1.465-5.859h1.465v1.464h-1.465V21.86zm2.929 0h1.465v1.464h-1.465V21.86zm2.93 0h1.465v1.464h-1.465V21.86z" fill="#000"/></svg>