<svg width="38" height="40" fill="none" xmlns="http://www.w3.org/2000/svg"><circle cx="18" cy="18" r="18" fill="#FFA501"/><path d="M33.264 34.146l-.65.433 1.53 2.296h-17.29l1.824-2.734h9.924v-.782H18.47a.391.391 0 00-.325.174L15.8 37.05a.393.393 0 00-.066.217v1.172a.781.781 0 00.782.78h17.968a.781.781 0 00.782-.78v-1.172a.393.393 0 00-.066-.217l-1.936-2.903zm-16.748 4.291v-.78h17.968v.78H16.516zm16.797-22.656H17.687a1.176 1.176 0 00-1.171 1.172V27.11a1.176 1.176 0 001.172 1.172h5.468v1.563h-1.562a.39.39 0 00-.39.39v1.563a.39.39 0 00.39.39h7.812a.391.391 0 00.39-.39v-1.563a.39.39 0 00-.39-.39h-1.562V28.28h5.468a1.175 1.175 0 001.172-1.172V16.953a1.176 1.176 0 00-1.172-1.172zm-4.297 14.844v.781h-7.032v-.781h7.032zm-5.078-.781V28.28h3.125v1.563h-3.125zm9.765-2.735a.39.39 0 01-.39.391H17.687a.39.39 0 01-.39-.39v-1.172h16.406v1.171zm0-1.953H17.297v-8.203a.39.39 0 01.39-.39h15.625a.39.39 0 01.391.39v8.203z" fill="#000"/><path d="M31.36 26.328h.78v.781h-.78v-.78zm-9.376-1.953h1.563a.39.39 0 00.39-.39v-.391h3.125v.39a.39.39 0 00.391.391h1.563a.39.39 0 00.39-.39v-1.563a.39.39 0 00-.39-.39h-.391v-2.345h.39a.39.39 0 00.391-.39v-1.563a.39.39 0 00-.39-.39h-1.563a.39.39 0 00-.39.39v.391h-3.125v-.39a.39.39 0 00-.391-.391h-1.563a.39.39 0 00-.39.39v1.563a.39.39 0 00.39.39h.391v2.344h-.39a.39.39 0 00-.391.39v1.563a.39.39 0 00.39.391zm6.641-.781h-.781v-.782h.781v.782zm-.781-5.469h.781v.781h-.781v-.781zm-5.469 0h.781v.781h-.781v-.781zm.781 1.563h.39a.39.39 0 00.392-.391v-.39h3.125v.39a.39.39 0 00.39.39h.39v2.344h-.39a.39.39 0 00-.39.39v.392h-3.125v-.391a.39.39 0 00-.391-.39h-.39v-2.345zm-.781 3.125h.781v.78h-.781v-.78zm-.391 12.5h5.47v.78h-5.47v-.78zm14.403-5.923l-1.106-1.105a.386.386 0 00-.277-.113.38.38 0 00-.273.113l-5.25 5.25a.384.384 0 00-.094.153l-.278.828a.395.395 0 00.094.398l-.55.555.55.55.555-.55a.386.386 0 00.398.093l.828-.277a.384.384 0 00.153-.094l5.25-5.25a.39.39 0 000-.55zm-5.735 5.184l-.511.168-.215-.21.172-.512 3.8-3.801.555.55-3.8 3.805zm4.352-4.355l-.55-.551.55-.555.555.555-.555.55z" fill="#000"/></svg>