<svg width="40" height="37" fill="none" xmlns="http://www.w3.org/2000/svg"><circle cx="18" cy="18" r="18" fill="#FFA501"/><path d="M38.387 16H16.613A1.616 1.616 0 0015 17.613v13.71a1.616 1.616 0 001.613 1.612h8.311l-.537 1.613h-1.323a.403.403 0 00-.403.404v.806h-3.629a.403.403 0 100 .806h17.742a.403.403 0 000-.806H32.34v-.806a.403.403 0 00-.403-.404h-1.323l-.537-1.613h8.311A1.616 1.616 0 0040 31.323v-13.71A1.616 1.616 0 0038.387 16zm-6.855 19.355v.403h-8.064v-.403h8.064zm-6.295-.807l.538-1.613h3.45l.538 1.613h-4.526zm13.957-3.225a.807.807 0 01-.807.806H16.613a.807.807 0 01-.806-.806v-.807h23.386v.807zM21.837 26.08l-.152 3.629h-.47l-.15-3.63h.772zm-.717-.807l.27-1.613h.122l.27 1.613h-.662zm.33-2.42c-.436 0-.806-.553-.806-1.209 0-.414.422-1.015.806-1.439.345.383.807.996.807 1.44 0 .655-.37 1.209-.806 1.209zm4.389-.806l.047.096v.308h-1.613v-.308l.048-.096h1.518zm-1.115-.806l.356-.711.355.71h-.711zm1.162 2.016v6.401c0 .017.001.034.004.05h-1.62a.425.425 0 00.003-.05v-6.4h1.613zm3.63-1.613h1.209v.807h-.403a.403.403 0 100 .806h.403v.806h-1.21a.403.403 0 000 .807h1.21v.806h-.403a.403.403 0 100 .807h.403v.806h-1.21a.403.403 0 000 .807h1.21v1.613h-2.823v-9.678h2.823v.807h-1.21a.403.403 0 000 .806zm4.838 4.839v3.175c0 .017.001.034.003.05h-1.62a.405.405 0 00.004-.05v-3.175h1.613zm-1.613-.807v-.308l.806-1.612.807 1.612v.308h-1.613zm6.452 4.033h-4.036a.425.425 0 00.003-.05v-4.386a.409.409 0 00-.042-.18l-1.21-2.42a.403.403 0 00-.721 0l-1.21 2.42a.406.406 0 00-.043.18v4.385c0 .017.002.034.004.05h-.407V19.63a.403.403 0 00-.403-.403H27.5a.403.403 0 00-.403.403v10.08h-.407a.405.405 0 00.003-.05v-7.61a.407.407 0 00-.042-.181l-1.21-2.42a.403.403 0 00-.721 0l-1.21 2.42a.408.408 0 00-.042.18v7.611c0 .017.001.034.003.05h-.978l.168-4.015v-.04a.376.376 0 00-.005-.042v-.001l-.373-2.239c.468-.353.781-.995.781-1.727 0-1.036-1.2-2.184-1.338-2.311a.404.404 0 00-.55 0c-.136.127-1.337 1.275-1.337 2.311 0 .732.313 1.374.782 1.727l-.373 2.239a.428.428 0 00-.006.043v.04l.168 4.016h-4.604V17.613a.807.807 0 01.807-.806h21.774a.807.807 0 01.806.806V29.71z" fill="#000"/><path d="M19.436 30.92h-2.42a.403.403 0 000 .806h2.42a.403.403 0 000-.807zm1.612 0h-.403a.404.404 0 000 .806h.403a.403.403 0 000-.807zm4.032-7.259a.403.403 0 00-.403.403V28.5a.403.403 0 00.807 0v-4.436a.403.403 0 00-.403-.403zm8.468 3.226a.404.404 0 00-.403.403v1.21a.403.403 0 00.807 0v-1.21a.403.403 0 00-.404-.403zM17.016 18.42h3.226a.403.403 0 100-.807h-3.226a.403.403 0 000 .806zm0 1.21h.807a.403.403 0 000-.807h-.807a.403.403 0 000 .806zm19.354 9.273h1.614a.404.404 0 000-.806H36.37a.403.403 0 000 .806zm1.21-1.209h.404a.403.403 0 100-.807h-.403a.404.404 0 000 .806z" fill="#000"/></svg>