<svg width="40" height="39" fill="none" xmlns="http://www.w3.org/2000/svg"><circle cx="18" cy="18" r="18" fill="#FFA501"/><path d="M15 15v20.52h8.024v1.468h-1.467v1.465h11.886v-1.465h-1.467V35.52H40V15H15zm15.511 21.988h-6.022V35.52h6.022v1.468zm8.024-2.932h-22.07v-2.934h22.07v2.934zm0-4.399h-22.07V16.465h22.07v13.192z" fill="#000"/><path d="M24.958 20.413l-1.036-1.035-3.683 3.683 3.683 3.684 1.036-1.036-2.647-2.648 2.647-2.648zm6.12-1.035l-1.036 1.035 2.648 2.648-2.648 2.648 1.036 1.036 3.683-3.684-3.683-3.683zm-3.446-.734l-1.7 8.55 1.436.285 1.7-8.55-1.436-.285z" fill="#000"/></svg>